HIERARCHY
ROOT Hips
{
	OFFSET 0.000000 0.000000 0.000000 
	CHANNELS 6 Xposition Yposition Zposition Zrotation Yrotation Xrotation
	JOINT LeftUpLeg
	{
		OFFSET 1.363060 -1.794630 0.839290 
		CHANNELS 3 Zrotation Yrotation Xrotation
		JOINT LeftLeg
		{
			OFFSET 2.448110 -6.726130 0.000000 
			CHANNELS 3 Zrotation Yrotation Xrotation
			JOINT LeftFoot
			{
				OFFSET 2.562200 -7.039590 0.000000 
				CHANNELS 3 Zrotation Yrotation Xrotation
				JOINT LeftToeBase
				{
					OFFSET 0.157640 -0.433110 2.322550 
					CHANNELS 3 Zrotation Yrotation Xrotation
					End Site
					{
						OFFSET 0.000000 0.000000 0.000000 
					}
				}
			}
		}
	}
	JOINT RightUpLeg
	{
		OFFSET -1.305520 -1.794630 0.839290 
		CHANNELS 3 Zrotation Yrotation Xrotation
		JOINT RightLeg
		{
			OFFSET -2.542530 -6.985550 0.000000 
			CHANNELS 3 Zrotation Yrotation Xrotation
			JOINT RightFoot
			{
				OFFSET -2.568260 -7.056230 0.000000 
				CHANNELS 3 Zrotation Yrotation Xrotation
				JOINT RightToeBase
				{
					OFFSET -0.164730 -0.452590 2.363150 
					CHANNELS 3 Zrotation Yrotation Xrotation
					End Site
					{
						OFFSET 0.000000 0.000000 0.000000 
					}
				}
			}
		}
	}
	JOINT Spine
	{
		OFFSET 0.028270 2.035590 -0.193380 
		CHANNELS 3 Zrotation Yrotation Xrotation
		JOINT Spine1
		{
			OFFSET 0.056720 2.048850 -0.042750 
			CHANNELS 3 Zrotation Yrotation Xrotation
			JOINT Neck1
			{
				OFFSET -0.054170 1.746240 0.172020 
				CHANNELS 3 Zrotation Yrotation Xrotation
				JOINT Head
				{
					OFFSET 0.104070 1.761360 -0.123970 
					CHANNELS 3 Zrotation Yrotation Xrotation
					End Site
					{
						OFFSET 0.000000 0.000000 0.000000 
					}
				}
			}
			JOINT LeftArm
			{
				OFFSET 3.362410 1.200890 -0.311210 
				CHANNELS 3 Zrotation Yrotation Xrotation
				JOINT LeftForeArm
				{
					OFFSET 4.983000 -0.000000 -0.000000 
					CHANNELS 3 Zrotation Yrotation Xrotation
					JOINT LeftHand
					{
						OFFSET 3.483560 -0.000000 -0.000000 
						CHANNELS 3 Zrotation Yrotation Xrotation
						JOINT LeftHandIndex1
						{
							OFFSET 0.715260 -0.000000 -0.000000 
							CHANNELS 3 Zrotation Yrotation Xrotation
							End Site
							{
								OFFSET 0.000000 0.000000 0.000000 
							}
						}
					}
				}
			}
			JOINT RightArm
			{
				OFFSET -3.136600 1.374050 -0.404650 
				CHANNELS 3 Zrotation Yrotation Xrotation
				JOINT RightForeArm
				{
					OFFSET -5.241900 -0.000000 -0.000000 
					CHANNELS 3 Zrotation Yrotation Xrotation
					JOINT RightHand
					{
						OFFSET -3.444170 -0.000000 -0.000000 
						CHANNELS 3 Zrotation Yrotation Xrotation
						JOINT RightHandIndex1
						{
							OFFSET -0.622530 -0.000000 -0.000000 
							CHANNELS 3 Zrotation Yrotation Xrotation
							End Site
							{
								OFFSET 0.000000 0.000000 0.000000 
							}
						}
					}
				}
			}
		}
	}
}
MOTION
Frames: 10
Frame Time: 0.041667
2.021033 17.374204 45.347253 -178.002685 -0.354306 -157.745298 -21.889468 -16.007963 -21.045517 -6.409363 9.521419 15.412128 -0.986278 9.852542 13.332524 0.125100 -2.280100 -6.280500 23.759525 26.355920 -23.612215 4.637435 -14.824015 23.821780 5.443183 -19.621270 2.153578 -0.475400 4.421700 -12.266100 -0.100536 5.748957 -4.097353 -7.021388 3.070348 2.282091 8.953657 21.217184 14.165775 -1.074200 11.825300 10.326500 -70.739281 6.642758 35.359563 13.116937 -18.503791 -3.432228 -2.486573 -2.610788 -38.517623 -7.125000 0.000000 0.000000 81.428136 -9.623862 -7.674011 -10.151736 12.598758 -1.923543 2.348997 1.400782 3.531383 7.125000 0.000000 0.000000 
2.022166 17.372392 45.346120 -178.005360 -0.389136 -157.801300 -21.900793 -16.047421 -20.990446 -6.405515 9.524708 15.430833 -0.999140 9.872080 13.296796 0.128000 -2.306000 -6.352000 23.810668 26.297139 -23.552829 4.632921 -14.814694 23.842994 5.433971 -19.580059 2.126042 -0.466900 4.382900 -12.156500 -0.096952 5.737612 -4.101624 -7.035405 3.066749 2.279462 8.803139 21.408436 14.046676 -1.138600 11.912200 10.313200 -70.685802 6.753325 35.526431 13.013434 -18.392134 -3.382919 -2.492698 -2.672128 -38.437513 -7.125000 0.000000 0.000000 81.592713 -9.867009 -7.683586 -10.198858 12.659366 -1.933904 2.337348 1.419616 3.308528 7.125000 0.000000 0.000000 
2.023978 17.371373 45.345327 -178.010767 -0.450910 -157.856555 -21.912553 -16.075848 -20.946940 -6.403591 9.528355 15.456556 -0.981293 9.815221 13.278669 0.121300 -2.245100 -6.183600 23.852074 26.260521 -23.489708 4.628243 -14.802823 23.849495 5.454194 -19.618546 2.091717 -0.465700 4.377000 -12.139800 -0.109682 5.753576 -4.117415 -7.138441 3.069501 2.206722 8.683876 21.538705 13.934683 -1.195300 11.973900 10.305100 -70.529717 6.922847 35.822301 12.945316 -18.328544 -3.354247 -2.507837 -2.652474 -38.357448 -7.125000 0.000000 0.000000 81.859558 -10.161251 -7.559958 -10.289276 12.771920 -1.953591 2.315092 1.425339 2.933783 7.125000 0.000000 0.000000 
2.026130 17.370240 45.345101 -177.998116 -0.501136 -157.897440 -21.906285 -16.055331 -20.925662 -6.399911 9.530546 15.482661 -0.961833 9.756065 13.271505 0.121900 -2.250400 -6.198100 23.906100 26.250043 -23.441894 4.626006 -14.796076 23.856500 5.468108 -19.643552 2.048038 -0.460800 4.354500 -12.076100 -0.109709 5.748008 -4.122475 -7.170371 3.067092 2.209605 8.548700 21.669023 13.818046 -1.257400 12.031000 10.275900 -70.460039 7.048657 36.081240 12.931236 -18.333559 -3.351841 -2.501548 -2.651372 -38.304941 -7.125000 0.000000 0.000000 82.034450 -10.377648 -7.177767 -10.425483 12.944242 -1.990755 2.292854 1.465311 2.429034 7.125000 0.000000 0.000000 
2.028168 17.368881 45.344761 -177.995628 -0.549463 -157.948170 -21.911363 -16.064468 -20.885517 -6.396546 9.533579 15.507949 -0.951554 9.717734 13.250370 0.120100 -2.233900 -6.152500 23.955907 26.225595 -23.382799 4.622624 -14.786271 23.864652 5.480366 -19.662331 2.009792 -0.457000 4.336400 -12.025100 -0.108237 5.735833 -4.127590 -7.195639 3.062191 2.208386 8.417168 21.808430 13.710649 -1.314100 12.092400 10.259400 -70.391627 7.173922 36.337757 12.906975 -18.325124 -3.344341 -2.496488 -2.649719 -38.259945 -7.125000 0.000000 0.000000 82.193015 -10.580403 -6.870474 -10.542159 13.089562 -2.020099 2.268608 1.488388 1.998410 7.125000 0.000000 0.000000 
2.030207 17.367635 45.344761 -177.994250 -0.595139 -158.000106 -21.917248 -16.078119 -20.840888 -6.393207 9.535461 15.530811 -0.944186 9.686304 13.226535 0.118000 -2.214200 -6.097900 24.005321 26.201417 -23.324166 4.618725 -14.777718 23.875646 5.492149 -19.679878 1.971708 -0.454200 4.323500 -11.988600 -0.105545 5.721685 -4.131602 -7.211299 3.057230 2.215254 8.288309 21.934338 13.611364 -1.370000 12.147300 10.246500 -70.331593 7.295005 36.615598 12.904439 -18.344601 -3.347970 -2.484419 -2.639361 -38.230381 -7.125000 0.000000 0.000000 82.332772 -10.755809 -6.500017 -10.672691 13.250525 -2.052812 2.240518 1.510295 1.543116 7.125000 0.000000 0.000000 
2.032246 17.366276 45.344987 -177.996932 -0.636739 -158.054325 -21.926463 -16.092548 -20.792635 -6.390211 9.535752 15.550244 -0.938447 9.659341 13.202679 0.115700 -2.192600 -6.038400 24.052119 26.174742 -23.266784 4.614202 -14.770409 23.890194 5.501184 -19.690074 1.936576 -0.451400 4.310400 -11.951700 -0.102458 5.708548 -4.136560 -7.219566 3.053670 2.214412 8.162087 22.043219 13.521008 -1.428400 12.194700 10.235900 -70.278901 7.426737 36.923632 12.923914 -18.393083 -3.362957 -2.465868 -2.624754 -38.218375 -7.125000 0.000000 0.000000 82.461317 -10.919580 -6.082298 -10.817570 13.426785 -2.088506 2.206259 1.528807 1.073041 7.125000 0.000000 0.000000 
2.034397 17.364917 45.345554 -178.001605 -0.672136 -158.110370 -21.939162 -16.113525 -20.739404 -6.387628 9.534717 15.565574 -0.937314 9.644230 13.177480 0.113300 -2.169800 -5.975200 24.095441 26.143730 -23.210671 4.609097 -14.763941 23.907695 5.507095 -19.691861 1.904722 -0.448800 4.297900 -11.916400 -0.100075 5.699888 -4.143613 -7.224569 3.053157 2.198107 8.041471 22.133171 13.441801 -1.488200 12.234100 10.228800 -70.228593 7.574716 37.275309 12.964849 -18.470032 -3.389147 -2.445121 -2.608639 -38.219564 -7.125000 0.000000 0.000000 82.587693 -11.079259 -5.639062 -10.977099 13.619117 -2.128623 2.169010 1.546478 0.597143 7.125000 0.000000 0.000000 
2.036662 17.363671 45.346460 -178.011009 -0.702402 -158.168190 -21.954561 -16.143847 -20.682276 -6.385271 9.533047 15.577057 -0.941814 9.644153 13.150491 0.111000 -2.148500 -5.916300 24.134737 26.108690 -23.156545 4.603487 -14.758222 23.927805 5.510459 -19.686836 1.877531 -0.446300 4.286300 -11.883700 -0.099399 5.697057 -4.152353 -7.232505 3.055622 2.169573 7.926165 22.203693 13.370649 -1.550900 12.265700 10.222200 -70.175971 7.733439 37.662749 13.023742 -18.570807 -3.424494 -2.424510 -2.595450 -38.227997 -7.125000 0.000000 0.000000 82.718211 -11.229661 -5.187546 -11.148912 13.824357 -2.172241 2.128261 1.561814 0.125842 7.125000 0.000000 0.000000 
2.038814 17.362426 45.347479 -178.020983 -0.728293 -158.228472 -21.973474 -16.171049 -20.623762 -6.382898 9.530741 15.588125 -0.947396 9.647390 13.126672 0.109500 -2.134000 -5.876100 24.171729 26.079463 -23.100586 4.597613 -14.753119 23.948864 5.513764 -19.681896 1.849019 -0.443000 4.270400 -11.838700 -0.100052 5.698506 -4.162392 -7.243952 3.059914 2.131639 7.818655 22.260851 13.307817 -1.612600 12.291700 10.216200 -70.121366 7.898147 38.078700 13.099536 -18.693470 -3.468535 -2.406450 -2.588595 -38.248408 -7.125000 0.000000 0.000000 82.852905 -11.372223 -4.725884 -11.334728 14.045010 -2.220514 2.084334 1.575570 -0.348714 7.125000 0.000000 0.000000 
